<svg width="689" height="526" viewBox="0 0 689 526" fill="none" xmlns="http://www.w3.org/2000/svg">
<path d="M489.5 73.5L485.5 76.5L482 80L484 86L487 91L490.5 92H496L497.5 95.5L499.5 99.5L501.5 102L502.5 106L505.5 109L508.5 112L509 118.5L507 122V126.5L513 133L514.5 136L519 139.5L521 142.5L520 146.5L517.5 152L513 156L507 157L504 160V167L502 173L504 177V181L498.5 183.5H493L490.5 185.5L486.5 189.5L482.5 191H479L475 194L471.5 200L470.5 206.5L472 211L476 216L479 220.5L481 227L482.5 230.5L484 236L488 238.5L493 239H497.5L505 241L510.5 244.5L515 247.5L517 250.5L524.5 251.5L526.5 255.5L525.5 261.5L521 271L522.5 276.5L529 284.5L530 291.5V300L534 304.5V307.5L537 312V319.5L535 327L531 330L527.5 332L526.5 336.5L526 341.5L528 346.5L532.5 348.5H537.5L541 351.5L539.5 355.5V361.5L542.5 365L547 369L559.5 361.5L566.5 358L571 354.5L574.5 349.5L578 340.5L582 333.5L585.5 329.5L595.5 324.5L604 321L610 319.5L618 316L626 312.5L633.5 309.5L630.5 302.5L630 296L630.5 291L632.5 283.5L634.5 280L637.5 273L639.5 266L638 263L638.5 258L636 250.5L635 243.5V237.5L638.5 232.5L643.5 230.5L646 227.5L647 224L650 221L652.5 217L655 211.5L657.5 207.5V197.5L657 192.5L655 189L656 180L653.5 165L655 160.5L656.5 153L656 146L656.5 133.5L653 129.5L651 126.5L650 121.5V114.5L651.5 108L653 104L653.5 99L652 93.5L651.5 89.5L649 85.5L645 82.5L643.5 74.5L641.5 69L637.5 61.5L638 57.5V52.5L636 44.5L631.5 37.5L626.5 33L620 29.5L616.5 27.5C615 27.3333 611.8 27 611 27C610.2 27 609 25.6667 608.5 25L601.5 23.5L593.5 25.5H584.5L577.5 27.5L570 30L562 32C558.5 33.1667 551.3 35.5 550.5 35.5C549.7 35.5 545.833 37.1667 544 38L535 40.5C533.667 41.6667 530.9 44 530.5 44C530.1 44 523.333 48.6667 520 51L510 57.5L502 60L493.5 63L489.5 67.5V73.5Z" fill="#EC7C28"/>
<path d="M481 227L479 220.5H469.5L461 221.5L454.5 225.5L450.5 229L446 231.5H437L429.5 237.5L424 243L418.5 245L413 246L406.5 249.5L403 255.5L398.5 260.5H393.5L387 264L382 269L382.5 273.345L384.5 277L385 280.5L382.5 283L378.5 287L379.5 292.5L378 296L371 300.5L370.5 304.5L372.5 309L373 314.5L375.5 319L373.5 322L374 331L374.5 336.5V342L371 345.5L367.5 347.5L361 350.5H355L351.5 348.5L346.5 346H343L338.5 347.5V351.5L337.823 355L333.5 357.5L329 359L325.5 357.5L321.5 356H317.5L313 355L309 354.5L304 357.5L300 359.5L296.5 358.5L294 355L289.5 351L287.5 348L284 346.5H282V351L283 356.5L285 361.5V365.5L284 367.5L283 373.5L285 377.5L287.5 381.5L292 385.5L296.5 387L300.5 390L305.5 394.5L308.5 399V404.5L306 411L303.5 417.5L302.5 422V428L305.5 437.5L305 440L304 447.5L304.5 456.5L302 461L299.5 466L299 472.5L311 478L325 484L337.5 486.5H346L360.5 483L372 482L383 485L393 487L401 486L407 482.5L409 479.5L408.5 475L410 469L415 465L422.5 461.5L432.5 458L442.5 456.5L450.5 454L456.5 449L462 444L464.5 438.5L466.5 433L468.5 428L476.5 423L484 419L493 415.5L502.5 410L503.5 405.5L504.5 401L510 398L518 396H527L538 395.5L543 392L547.5 386L547 380.5L544.5 372.5L547 369L539.5 361.5V355.5L541 351.5L537.5 348.5H532.5L528 346.5L526 341.5L526.5 336.5L527.5 332L531 330L535 327L537 319.5V312L534 307.5V304.5L530 300V291.5L529 284.5L522.5 276.5L521 271L525.5 261.5L526.5 255.5L524.5 251.5L517 250.5L515 247.5L505 241L497.5 239H493L488 238.5L484 236L482.5 230.5L481 227Z" fill="#EC7C28"/>
<path d="M484 86L482 80L475.5 84.5L471 89L464 93.5L459.5 98L456 103L448.5 104.5L441 107.5L436.5 106.5L430.5 106L427 110.5L421 113L414.5 116.5L404.5 115.5L400.5 116.5L392.5 117L386.5 117.5L374 114.5L370.5 113.5H363L359.5 110L355 106L352.5 104.5L350 100.5L349 96.5L347.5 93L350 80.5L352 78L354 74L360 71.5L362 67.5L364 62L367 57.5L366 55L366.5 49.5L368 46L366.5 36.5L365.5 32.5L362 28.5L357.5 25.5L352 26.5L346.5 24.5L344 21.5L339.5 20.5L334 21.5L324.5 19L319 20L310.5 21L308 19.5L301 19L295.5 19.5L291 20H286.5L281 19.5L280.5 22L278 26L273.5 30.5L268.5 33L262.5 36L256 37L252 36.5L247 38V45.5L249 49.5V54L246 57L243 59.5L243.5 64L246 69.5V75L247 79.5L248 85V91L247.5 95.5L245.5 100L241 104L238.5 105.5L238 110.5L236 114.5V120.5L240 121.5L242.5 125L243 130L244 134V139L242.5 144L241.5 148L243.5 153L247 156.5L251 162L256.5 166L261 167L266 168.5L270 167L274.5 166.5L280 167.5L283 173.5L286.5 177.5L291 179.5L295 180.5L299.5 181L305 180.5L309.5 183L311.5 187L314.5 190.5L315.5 195L319.5 197.5L323 200L328 200.5L334.5 201.5L340 203L344.5 204.5L349.5 205L354 203.5L357.5 203L360.5 204.5L367.5 204L372 201.5L375.5 199L377.5 198.5L379.5 199L381 201.5L384 205L388 207.5L390 212L393 216L395.5 218L398.5 219L404.5 218L409.5 217.5L415.5 216L417.5 212.5L418.5 210L421.5 207.5L426.5 204.5L431.5 203H436L440 205L445.5 206.5L449 205.5L451 201.5L450 197L451.5 194.5L453.5 193.5H457L459.5 197L463.5 196L469 195.5L473.5 196.5L475 194L479 191H482.5L486.5 189.5L490.5 185.5L493 183.5H498.5L504 181V177L502 173L504 167V160L507 157L513 156L517.5 152L520 146.5L521 142.5L519 139.5L514.5 136L513 133L507 126.5V122L509 118.5L508.5 112L502.5 106L501.5 102L499.5 99.5L498 96.5L496 92H490.5L487 91L484 86Z" fill="#EC7C28"/>
<path d="M241 38.5L247 38V45.5L249 49.5V54L246 57L243 59.5L243.5 64L246 69.5V75L248 85V91L247.5 95.5L245.5 100L241 104L238.5 105.5L238 110.5L236 114.5V120.5L230.5 121L226.5 122.5L225 127.5L224 133.5L222 137L219.5 140.5L216.5 141.5H210.5L206.5 142L200 143.5L195.5 145.5L193 148.5L193.5 152.5L195.5 156.5L194.5 161L189.5 164.5L184.5 167L178.5 168L168.5 166.5L163 165.5L157 167.5L151.5 170.5L146.5 172L145.5 175.5L143 180.5L142 189.5L143 195.5L139 204L141 209.5L147.5 211.5L151 215.5L156 219.5L154.5 225.5V231.5L158.5 235.5C159.667 238.833 162 245.6 162 246C162 246.4 161 249.5 160.5 251L156 255L154.5 262L157.5 267.5L159.5 270L157.5 273L156.5 276L151.5 275.5L144.5 276L139 279L130.5 281L121 280L113 278.5L105 277.5L94 272.5L83.5 265L77.5 263.5L73.5 259.5L70.5 251L66.5 244.5L60 239L56.5 236L53 235L50.5 230L46.5 225.5L45 219.5L41 210V205.5V203L44.5 200L49.5 197L54 192.5L56.5 189.5L55.5 186.5L52.5 183L48 178L47 172.5L48 167.5L47 161L49 156V150L49.5 146.5L47 139L47.5 134L49.5 130.5V125.5L50.5 119.5L51 115L49 109L47.5 105.5L47 100.5L47.5 96.5V92.5L50.5 89.5L52 84L55 82L57.5 79.5L61 78L65.5 76.5L68 73L70 67L71.5 64V60.5L70.5 55L65 45.5L65.5 42.5L65 39L63.5 34.5L65 29.5L66.5 24.5L69.5 22.5L71.5 19.5L74 17L77 15.5L83 16L101.5 10.5L110.5 6.5L115.5 4L121 2.5L128 0L134 1L137.5 1.5L142 2.5L146 5.5L150.5 7L154.5 10L159 12L160 16L163.5 20.5L169 22L175.5 23.5L181.5 26.5L189.5 30.5L194.5 32L204 36L210.5 37L218.5 37.5L229.5 36.5L236 37L241 38.5Z" fill="#EC7C28"/>
<path d="M58 240.5L60.5 239.5L66.5 244.5L70.5 251L73.5 259.5L77.5 263.5L83.5 265L94 272.5L105 277.5L113 278.5L121 280L130.5 281L139 279L144.5 276L151.5 275.5L156.5 276L159.5 278L161.5 283L167 289L175 292.5L179 293.5L184 293L190 290.5H193.5L196 293L201.5 294H204.5L207.5 291L210 289L211.5 287.5L214.5 288L215.5 290L217 294L219 296.5L229 302L235.5 305L242.5 307.5L247.5 310L252 310.5H256.5L258.5 312L259 316.5L261.5 320L263 324.5L260.5 328.5L260 332.5L261 337L266 339L270.5 341.5L274.5 344L279 346L282 346.5V351L283 356.5L285 361.5V365.5L284 367.5L283 373.5L285 377.5L287.5 381.5L292 385.5L296.5 387L300.5 390L305.5 394.5L308.5 399V404.5L303.5 417.5L302.5 422V428L305.5 437.5L305 440L304 447.5L304.5 456.5L299.5 466L299 472.5L290.5 471H283.5L275 472L268 475L260 477.5L250 479L242.5 483L233.5 486L221.5 488.5L213.5 492.5L202 491.5L195 492.5L190 495.5L181 495H175.5L167.5 492.5L163 491L157.5 481L155 477.5L147.5 475L142 473.5L132 467.5L128 463.5L125 459.5L122.5 454L123 445.5L126.5 441.5L133.5 435.5L136 432.5L144.5 429.5L150 424L160 416L162 411L166.5 405L167.5 400.5L164.5 397L159.5 396H152L139.5 396.5L133 397H121.5L109 395.5L98.5 394L90.5 392L83 389.5L72.5 381L71 375V369L73 361L71.5 357L64 350.5L58 349V240.5Z" fill="#EC7C28"/>
<path d="M143 195.5L139 204L141 209.5L147.5 211.5L151 215.5L156 219.5L154.5 225.5V231.5L158.5 235.5L162 246L160.5 251L156 255L154.5 262L157.5 267.5L159.5 270L157.5 273L156.5 276L159.5 278L161.5 283L167 289L175 292.5L179 293.5L184 293L190 290.5H193.5L196 293L201.5 294H204.5L207.5 291L210 289L211.5 287.5L214.5 288L215.5 290L217 294L219 296.5L229 302L235.5 305L242.5 307.5L247.5 310L252 310.5H256.5L258.5 312L259 316.5L261.5 320L263 324.5L260.5 328.5L260 332.5L261 337L266 339L270.5 341.5L274.5 344L279 346L282 346.5H284L287.5 348L289.5 351L294 355L296.5 358.5L300 359.5L304 357.5L309 354.5L313 355L317.5 356H321.5L329 359L333.5 357.5L338 355L338.5 351.5V347.5L343 346H346.5L355 350.5H361L371 345.5L374.5 342V336L374 331L373.5 322L375.5 319L373 314.5L372.5 309L370.5 304.5L371 300.5L378 296L379.5 292.5L378.5 287L385 280.5L384.5 277L382.5 273.5L382 269L387 264L393.5 260.5H398.5L403 255.5L406.5 249.5L413 246L418.5 245L424 243L429.5 237.5L437 231.5H446L450.5 229L454.5 225.5L461 221.5L469.5 220.5H479L476 216L472 211L470.5 206.5L471.5 200L473.5 196.5L469 195.5L463.5 196L459.5 197L457 193.5H453.5L451.5 194.5L450 197L451 201.5L449 205.5L445.5 206.5L440 205L436 203H431.5L426.5 204.5L421.5 207.5L418.5 210L417.5 212.5L415.5 216L409.5 217.5L404.5 218L398.5 219L395.5 218L393 216L390 212L388 207.5L384 205L381 201.5L379.5 199L377.5 198.5L375.5 199L372 201.5L367.5 204L360.5 204.5L357.5 203L354 203.5L349.5 205L344.5 204.5L340 203L334.5 201.5L328 200.5L323 200L319.5 197.5L315.5 195L314.5 190.5L311.5 187L309.5 183L305 180.5L299.5 181L295 180.5L291 179.5L286.5 177.5L283 173.5L280 167.5L274.5 166.5L270 167L266 168.5L261 167L256.5 166L251 162L247 156.5L243.5 153L241.5 148L242.5 144L244 139V134L243 130L242.5 125L240 121.5L236 120.5L230.5 121L226.5 122.5L225 127.5L224 133.5L222 137L219.5 140.5L216.5 141.5H210.5L206.5 142L200 143.5L195.5 145.5L193 148.5L193.5 152.5L195.5 156.5L194.5 161L189.5 164.5L184.5 167L178.5 168L168.5 166.5L163 165.5L157 167.5L151.5 170.5L146.5 172L145.5 175.5L143 180.5L142 189.5L143 195.5Z" fill="#EC7C28"/>
<path d="M20.5 441V451L17.5 458L14.5 462L9.5 466L8.5 471.5V476.5L10.5 481.5L8.5 489.5L7 494L2 498.5L0 503L4 507L8.5 510L11.5 508.5L18.5 505L22 501.5L27.5 496L30.5 492L35.5 486.5L34.5 481.5V475L37 471.5L41.5 467L43 462L41.5 455L43 447L46 439.5V432.5L44 426L39.5 425L35.5 427L28.5 432.5L20.5 441Z" fill="#EC7C28"/>
<path d="M515.5 489L518 495.5L521 499.5L524.5 503.5L525.5 509L522.5 512L521 517.5L522.5 523L528 526H535L541 525L544.5 519L550.5 516.5L554.5 519H564L567.5 516.5L570 514L566.5 503.5V497.5V493L570 486.5L571 480.5L568.5 475.5L562.5 474L554.5 477.5L550.5 475.5H545.5H541L537 479.5L531.5 485L525.5 486.5H520L515.5 489Z" fill="#EC7C28"/>
<path d="M567 441L557.5 454.5L559.5 457L564 461.5L572 458.5H578L581 464.5L585.5 469L588 476L584.5 484.5L585.5 492.5L591.5 496L601.5 492.5L605.5 485.5V476L610.5 469L616 466.5L622.5 469L629.5 472H642.5H649.5L658 466.5L660 457L659 448.5L656 443.5L654.5 435.5L660 429L662 420.5V410.5L666.5 409L674 404.5L677.5 396L680 385.5V378.5L682.5 373.5L689 364.5V357.5L685.5 349.5L679 345.5H675L664 348.5L660 356.5C658.5 360.5 655.3 368.7 654.5 369.5C653.7 370.3 650.833 375.833 649.5 378.5H645L632.5 380.5L623.5 387.5L616 395L613 408V421.5L607.5 430.5L600.5 436.5H593L585.5 434.5L573.5 436.5L567 441Z" fill="#EC7C28"/>
</svg>
