<svg width="546" height="472" viewBox="0 0 546 472" fill="none" xmlns="http://www.w3.org/2000/svg">
<path d="M237 363.5L238 374L243.5 374.5H248L252.5 374L258 373.5L265 374L267.5 375.5L276 374.5L281.5 373.5L291 376L296.5 375L301 376L303.5 379L309 381L314.5 380L319 383L322.5 387L323.5 391L325 400.5L323.5 404L323 409.5L324 412L321 416.5L319 422L317 426L311 428.5L309 432.5L307 435L304.5 447.5L306 451L307 455L309.5 459L312 460.5L316 464L320 468H327.5L343.5 472L357.5 471L361.5 470L371.5 471L378 467.5L384 465L387.5 460.5L393.5 461L398 462L405.5 459L413 457.5L416.5 452.5L421 448L428 443.5L432.5 439L439 434.5L446.5 428V422L450.5 417.5L467 412L487.5 398.5L492 395L507 390L503.5 378.5L507.5 366.5V354.5L508.5 345.5L524 335L538 327L541 312.5L539 298L530.5 285L519 289.5L506.5 287.5L489.5 289.5L474 296L460 298L454.5 294.5L447.5 289.5H441L438 293L441 299L439 308L430.5 312L425.5 320.5L413.5 322L404 315.5L387 317L371 315.5L362 309L358 287L348 282L338.5 283L326 280L318.5 270L312 263L297.5 264.5L285.5 261L283 255L270 252.5L265 248.5L253 243L238 247.5L237 258L232 268.5L228.5 284.5L226.5 297.5L228 310.5L232 316.5L234.5 322.5L237 331.5L241 338V343C241 343.4 238.667 350.167 237.5 353.5L237 363.5Z" fill="#00FF93"/>
<path d="M231 233L238 247.5L253 243L265 248.5L270 252.5L283 255L285.5 261L297.5 264.5L312 263L318.5 270L326 280L338.5 283L348 282L358 287L362 309L371 315.5L387 317L404 315.5L413.5 322L425.5 320.5L430.5 312L439 308L441 299L438 293L441 289.5H447.5L460 298L474 296L489.5 289.5L506.5 287.5L519 289.5L530.5 285L530 275L528 262L524.5 248L528 230.5L532 221.5L531 211.5L535.5 202L542 194.5L545.5 188.5L542 179L536.5 168.5L525.5 163.5L515.5 160L511 150.5L513 131L512.5 111L507.5 104.5L504.5 95.5L496 89.5L487.5 78.5L481.5 66L477.5 56L469 46.5L460 42L455 37L447.5 32.5L437 29.5L424 26L412 20L404.5 28V34L409.5 42L405.5 52.5L396 55.5L385.5 64L373 66L363 71.5L359.5 79.5L354.5 81L347 91.5L334.5 99L321.5 98L308 100.5L296.5 114L283 121.5L274 136L268 156.5L256.5 167L244.5 172.5L227.5 175.5L220 171L193.5 170L183 174.5L182.5 182L189.5 191L189 199.5L194.5 212L206 218.5L212.5 220L220.5 224.5L231 233Z" fill="#00FF93"/>
<path d="M193.5 170L183 174.5L177.5 174L171.5 170L167.5 163.5L167 157L166 151.5L164 145L162 140L163 136.5L166.5 131.5L167 125.5L172 121.5L176 115.5L173.5 110.5L175 104.5L170 97.5L166.5 84.5L165 72.5L167 64L166 56.5L161.5 51L153 47.5L147.5 43L140 41.5L134.5 38L122.5 38.5L113 39L108 36.5L103.5 30L103 22L106.5 21.5L114.5 18.5L126 16L138.5 17.5L144.5 13.5L153 12.5L159 14.5H166L169 12H179.5L186 8L190.5 7H197L199 3.5L208 2.5L213.5 8L222 10.5L227 9L236 10.5L242 7.5L252 6.5L256.5 4H263L270.5 0L295.5 0.5L302 4.5L319.5 22.5L321 27.5L330 35.5L350.5 35L368 26.5L372 20.5L373.5 12.5L381 6.5L390.5 2.5L400 2L404 7.5L410 13L412 20L404.5 28V34L409.5 42L405.5 52.5L396 55.5L385.5 64L373 66L363 71.5L359.5 79.5L354.5 81L347 91.5L334.5 99L321.5 98L308 100.5L296.5 114L283 121.5L274 136L268 156.5L256.5 167L244.5 172.5L227.5 175.5L220 171L193.5 170Z" fill="#00FF93"/>
<path d="M99 22.5L103 22L103.5 30L108 36.5L113 39L122.5 38.5L134.5 38L140 41.5L147.5 43L153 47.5L161.5 51L166 56.5L167 64L165 72.5L166.5 84.5L170 97.5L175 104.5L173.5 110.5L176 115.5L172 121.5L167 125.5L166.5 131.5L163 136.5L162 140L164 145L166 151.5L167 157L159.5 156.5L150.5 160.5L140 162.5L134.5 162L131 158H127.5L121.5 152L113.5 147.5L107.5 145.5L103 147L95 152.5L85.5 157L77 163.5L65 164.5L51.5 156.5C49 154.5 43.9 150.4 43.5 150C43.1 149.6 40 146.167 38.5 144.5L36.5 134.5L31 131.5L28 127.5L16.5 124.5L12 119L13.5 108L11.5 98L9.5 93L4.5 89V85L2 79.5L1 62.5L0 56L2 51L9.5 50L18.5 47L37.5 31.5L43.5 31L51.5 29L61 28L73.5 30L83.5 28L93 27.5L99 22.5Z" fill="#00FF93"/>
</svg>
