<svg width="704" height="650" viewBox="0 0 704 650" fill="none" xmlns="http://www.w3.org/2000/svg">
<path d="M699.5 470L696.5 466.5L693 462.5L685.5 463L677 462L667 464.5L656.5 465.5L647 461.5L635 462.5L629 448.5L622 442.5L616 433.5V424L607.5 419L604 410.5L598.5 408.5L593 411L588 417L578 422.5L575.5 431L576 441L566.5 446L559.5 446.5L555 454L550 459.5L553.5 470L551 475L544 478.5L537 482.5L534.5 487L526.5 489L517 491.5L511 497.5L510 504.5L504 508L490 509L481.5 513.5L476.5 518.5L472 520L471.5 529L468 534.5L467 539L476.5 544L480 546.5L479 549L473.5 550L471 556.5L463 565L452.5 571L445.5 578.5L446.5 588L449.5 595.5L455 596.5L460 599.5L465.5 603.5L471 610V622.5L482.5 626L492 632.5L503 637.5L513 638.5L530.5 637.5L546.5 635.5L559 632L570.5 627.5L581 625.5L596.5 628L609 630L636 628H657L674 630L686.5 633L702.5 632.5V524L704 522.5L700.5 519.5L697 518.5L694.5 513.5L690.5 509L689 503L685 493.5V489V486.5L688.5 483.5L693.5 480.5L698 476L700.5 473L699.5 470Z" fill="#FFC400"/>
<path d="M604 407V410.5L598.5 408.5L593 411L588 417L578 422.5L575.5 431L576 441L566.5 446L559.5 446.5L555 454L550 459.5L553.5 470L551 475L544 478.5L537 482.5L534.5 487L526.5 489L517 491.5L511 497.5L510 504.5L504 508L490 509L481.5 513.5L476.5 518.5L472 520L471.5 529L468 534.5L467 539L452.5 537.5L446 534.5L441 530.5L434 531L426.5 538L416 539L407.5 536.5L406 533L402 530.5L395.5 525L392.5 520L386 512L383.5 503L380 496.5L376 485.5L369 472.5L362.5 467L348.5 460.5L342 458.5L333 457L326.5 457.5L326 451.5L322 447.5L316.5 445L313.5 440L311.5 437.5L311 433.5L312 430.5L318.5 428L322 422L329 415.5L331 410L332.5 403.5L336.5 400L342 397V391.5L347.5 387.5L354.5 386.5L358 380.5V372.5L355.5 366.5L350.5 360L345.5 359.5L338.5 354L338 349L342.5 337L351.5 331L370.5 326L384 320.5L395.5 321.5L399.5 318L407 313.5L413 303.5L417.5 293.5L430.5 284L443.5 285L461 283.5L472.5 275.5L480.5 273.5L492 273L498 266.5L503 261L517.5 262L528 264L538.5 266.5L553 268.5L559.5 268L566.5 270.5L574.5 277L579.5 284L580.5 294L597 312L598 319L604 323L606.5 330.5L614 340.5L618.5 349.5L617 358.5L616.5 372L607 392.5L606.5 403.5L604 407Z" fill="#FFC400"/>
<path d="M334 333.5L342.5 337L351.5 331L370.5 326L384 320.5L395.5 321.5L399.5 318L407 313.5L413 303.5L417.5 293.5L430.5 284L443.5 285L461 283.5L472.5 275.5L480.5 273.5L492 273L498 266.5L503 261L488.5 253.5L479.5 248L473.5 244L470 237.5L463 234L457.5 226L451.5 220.5L445 212L443.5 207L444.5 200.5L446 193.5L450.5 189.5L453 185L452 181.5L450.5 174V170L454 164.5L453.5 158L457 154.5L456 151.5L459 149L461 143.5L459.5 140L454.5 137L450 132L441.5 127L435 120.5L426.5 114L418.5 113.5L406.5 115L397.5 120L390.5 123L384 128.5L374.5 130.5H366L360.5 135L349.5 138.5L342.5 141.5L336.5 146.5L327.5 149L316 149.5L315.5 156L312 161L312.5 168L316 171L321 180L322.5 189.5L318.5 197.5L313 203.5L309.5 212.5L305 220.5L297.5 221L291.5 222.5L286.5 220.5L278 216.5L269.5 213.5L262 212L255.5 211.5L250.5 208.5L243.5 209L240.5 211L238 216.5L233 220.5L225.5 223.5L218 226L212 230L210.5 235.5L206 240.5L202 243.5L202.5 250L202 256.5L198 262.5L193 267L187.5 267.5L181 270L180 274L176.5 280.5L170 284.5L161 286.5L153.5 287L145.5 285L143.5 289V295L140 298V302.5L142 311L138.5 318.5L141.5 325.5L148.5 330L153.5 336.5L152 343L151 352L158.5 351.5L171.5 348L186 343.5L186.5 339L192.5 333.5L201 328.5L202 323L206 320L214 322L227.5 329L242.5 336.5L257 338.5L268 333L279 331.5L290 327.5L301.5 333L314.5 340L327.5 335.5L334 333.5Z" fill="#FFC400"/>
<path d="M144.5 357L151 352L158.5 351.5L171.5 348L186 343.5L186.5 339L192.5 333.5L201 328.5L202 323L206 320L214 322L227.5 329L242.5 336.5L257 338.5L268 333L279 331.5L290 327.5L301.5 333L314.5 340L327.5 335.5L334 333.5L342.5 337L338 349L338.5 354L345.5 359.5L350.5 360L355.5 366.5L358 372.5V380.5L354.5 386.5L347.5 387.5L342 391.5V397L336.5 400L332.5 403.5L331 410L329 415.5L322 422L318.5 428L312 430.5L311 433.5L311.5 437.5L313.5 440L316.5 445L322 447.5L326 451.5L326.5 457.5L323.5 458.5L317 459.5H309L300 458.5L291.5 455L284 452L279.5 453.5H269L259.5 455.5H249.5L241 452L234 446L229.5 442.5L222 439.5L219 436L215 437L206.5 439.5L199 444L191 447L183.5 450L176.5 452.5L174 457.5L168.5 463L162.5 467L160 465.5L155.5 460L154.5 453.5L153 448H149.5L147 445.5V441L145.5 437L142 434.5L140 426.5V420L137.5 412.5L136 404.5L134 401.5L131 402C129.167 400.833 125.4 398.5 125 398.5C124.6 398.5 124.167 393.5 124 391L128 385.5L125.5 378L132 371.5H137L140.5 367L144 364L144.5 357Z" fill="#FFC400"/>
<path d="M109 507.5L103 502L107.5 496L119.5 492L131.5 492.5L140 488.5L142.5 483L151.5 480L159 475V471.5L162.5 467L168.5 463L174 457.5L176.5 452.5L183.5 450L191 447L199 444L206.5 439.5L215 437L219 436L222 439.5L229.5 442.5L234 446L241 452L249.5 455.5H259.5L269 453.5H279.5L284 452L291.5 455L300 458.5L309 459.5H317L323.5 458.5L326.5 457.5L333 457L342 458.5L348.5 460.5L362.5 467L369 472.5L376 485.5L380 496.5L383.5 503L386 512L392.5 520L395.5 525L402 530.5L406 533L407.5 536.5L416 539L426.5 538L434 531L441 530.5L446 534.5L452.5 537.5L467 539L476.5 544L480 546.5L479 549L473.5 550L471 556.5L463 565L452.5 571L445.5 578.5L446.5 588L449.5 595.5L455 596.5L460 599.5L465.5 603.5L471 610V622.5H458.5C458.1 622.5 447.333 624.5 442 625.5L413.5 628L388 625.5H355.5L327.5 629L301 637L280.5 650L273.5 629.5L271 618.5L270 613.5L266.5 609L261 594.5L257 592L253 585.5L239 565.5L231 562.5L226 554.5L221 552L217.5 543.5L212.5 541.5L205.5 534.5L194.5 527H185L179 524.5L173 523H163L159.5 520.5H150L146 519L137 518L133 516H122L116.5 514L109 507.5Z" fill="#FFC400"/>
<path d="M159 471.5L162.5 467L160 465.5L155.5 460L154.5 453.5L153 448H149.5L147 445.5V441L145.5 437L142 434.5L140 426.5V420L137.5 412.5L136 404.5L134 401.5L131 402C129.167 400.833 125.4 398.5 125 398.5C124.6 398.5 124.167 393.5 124 391L128 385.5L125.5 378L132 371.5H137L140.5 367L144 364L144.5 357L151 352L152 343L153.5 336.5L148.5 330L141.5 325.5L138.5 318.5L142 311L140 302.5V298L143.5 295V289L145.5 285L142.5 276.5L137.5 269.5V263.5L135 256.5L128 253L124.5 247L115 244.5L109 248.5L98.5 250L89 245L80 236.5H53.5L52.5 244.5L50 255.5L50.5 265L50 285L51.5 299.5L52.5 312L56.5 318.5L59.5 346.5L57.5 354L52.5 361.5L47.5 367L46.5 373L42 375.5L32 382L21.5 383L16 388L6 394.5L0 400.5L1 407.5L4 413L14 420.5L14.5 425.5L23 431.5L32 440L40 443.5L47.5 449.5L56.5 454L59.5 461.5L67.5 471.5L74.5 474.5L75 480L79.5 483L84 489.5L94.5 499L103 502L107.5 496L119.5 492L131.5 492.5L140 488.5L142.5 483L151.5 480L159 475V471.5Z" fill="#FFC400"/>
<path d="M53.5 234.5V236.5H80L89 245L98.5 250L109 248.5L115 244.5L124.5 247L128 253L135 256.5L137.5 263.5V269.5L142.5 276.5L145.5 285L153.5 287L161 286.5L170 284.5L176.5 280.5L180 274L181 270L187.5 267.5L193 267L198 262.5L202 256.5L202.5 250L202 243.5L206 240.5L210.5 235.5L212 230L218 226L225.5 223.5L233 220.5L238 216.5L240.5 211L243.5 209L250.5 208.5L255.5 211.5L262 212L269.5 213.5L278 216.5L286.5 220.5L291.5 222.5L297.5 221L305 220.5L309.5 212.5L313 203.5L318.5 197.5L322.5 189.5L321 180L316 171L312.5 168L312 161L315.5 156L316 149.5H308.5L297 146.5L290 143L284.5 137.5L283.5 130.5L280 128.5L277 121.5L271 118.5L262.5 114.5L254 111L243 110L237 104.5L229 105.5L221 103L206 102.5L193 100L184 95.5L180.5 87L179.5 79L176 73.5L176.5 64.5L174 63L170 56.5L164.5 50.5L161 43L155.5 36.5L151 29L142.5 22.5L142 16L139 9L133.5 4L124 2.5L109.5 1.5L97.5 3L90 0L83.5 5L76.5 7.5L70 3L62.5 4L60.5 7.5L60 12V26L61.5 33L65.5 41L71 47.5L75 57L79.5 61L80.5 74L77.5 82.5L76 91L79 96L77.5 105L80 114.5L84 120.5V124.5L79 135.5V144.5L77 156L78.5 163.5L78 170L80 173.5V179.5L68.5 203.5L63 210.5L61 218L57.5 227L53.5 234.5Z" fill="#FFC400"/>
</svg>
